<svg width="20" height="20" viewBox="0 0 20 20" fill="none" xmlns="http://www.w3.org/2000/svg">
<path d="M6.92531 18.0617L0 20L1.93909 13.0774L14.6201 0.462854C14.7634 0.316331 14.9347 0.19991 15.1235 0.120427C15.3125 0.0409434 15.5155 0 15.7205 0C15.9255 0 16.1284 0.0409434 16.3174 0.120427C16.5063 0.19991 16.6775 0.316331 16.8208 0.462854L19.5448 3.20113C19.689 3.34414 19.8035 3.5143 19.8817 3.70175C19.9598 3.88921 20 4.09029 20 4.29337C20 4.49645 19.9598 4.69753 19.8817 4.88499C19.8035 5.07246 19.689 5.2426 19.5448 5.38561L6.92531 18.0617Z" fill="#EDEDED"/>
</svg>
