<svg width="20" height="20" viewBox="0 0 20 20" fill="none" xmlns="http://www.w3.org/2000/svg">
<g clip-path="url(#clip0_9_129)">
<path d="M10 19.2856C7.90752 16.9817 5.06974 15.4896 1.98575 15.0713C1.63472 15.0324 1.31053 14.8649 1.07573 14.6012C0.840931 14.3373 0.712179 13.9959 0.714321 13.6427V2.14269C0.714308 1.93635 0.758995 1.73245 0.845309 1.54502C0.931622 1.3576 1.05751 1.1911 1.21432 1.05698C1.36837 0.925295 1.54867 0.827893 1.74325 0.771243C1.93782 0.714593 2.14224 0.699992 2.3429 0.728407C5.29188 1.21785 7.98964 2.68752 10 4.89984V19.2856Z" fill="#5EBFED"/>
<path d="M10 19.2856C12.0925 16.9817 14.9303 15.4896 18.0143 15.0713C18.3653 15.0324 18.6896 14.8649 18.9243 14.6012C19.1591 14.3373 19.2879 13.9959 19.2857 13.6427V2.14269C19.2857 1.93635 19.241 1.73245 19.1547 1.54502C19.0684 1.3576 18.9426 1.1911 18.7857 1.05698C18.6317 0.925295 18.4514 0.827893 18.2569 0.771243C18.0621 0.714593 17.8579 0.699992 17.6571 0.728407C14.7081 1.21785 12.0104 2.68752 10 4.89984V19.2856Z" fill="#5EBFED"/>
</g>
<defs>
<clipPath id="clip0_9_129">
<rect width="20" height="20" fill="white"/>
</clipPath>
</defs>
</svg>
