<svg width="20" height="20" viewBox="0 0 20 20" fill="none" xmlns="http://www.w3.org/2000/svg">
<path d="M13.5714 9.28572C13.5714 10.2329 13.1951 11.1413 12.5253 11.8111C11.8556 12.4809 10.9472 12.8572 9.99996 12.8572C9.05276 12.8572 8.14434 12.4809 7.47457 11.8111C6.8048 11.1413 6.42853 10.2329 6.42853 9.28572V4.28572C6.42853 3.33852 6.8048 2.43011 7.47457 1.76034C8.14434 1.09057 9.05276 0.714294 9.99996 0.714294C10.9472 0.714294 11.8556 1.09057 12.5253 1.76034C13.1951 2.43011 13.5714 3.33852 13.5714 4.28572V9.28572Z" fill="#5EBFED" stroke="#5EBFED" stroke-linecap="round" stroke-linejoin="round"/>
<path d="M17.1428 10C17.1447 10.8447 16.9797 11.6815 16.6574 12.4623C16.335 13.2431 15.8615 13.9526 15.2641 14.5499C14.6668 15.1471 13.9574 15.6207 13.1766 15.943C12.3958 16.2654 11.559 16.4304 10.7143 16.4286H9.2857C8.44096 16.4304 7.60418 16.2654 6.82338 15.943C6.04258 15.6207 5.33315 15.1471 4.73582 14.5499C4.13849 13.9526 3.66505 13.2431 3.34265 12.4623C3.02025 11.6815 2.85525 10.8447 2.85713 10" stroke="#5EBFED" stroke-linecap="round" stroke-linejoin="round"/>
<path d="M10 16.4286V19.2857" stroke="#5EBFED" stroke-linecap="round" stroke-linejoin="round"/>
</svg>
